<svg xmlns="http://www.w3.org/2000/svg" viewBox="0 0 160 48" fill="none">
<g transform="translate(4, 4)">
  <rect width="38" height="40" rx="3" fill="#fff"/>
  <rect x="1" y="16" width="16" height="8" fill="#009453"/>
  <rect x="1" y="32" width="16" height="7" fill="#009453"/>
  <path d="M20 18H25V5H3V10H20V18Z" fill="#008BD2"/>
  <rect x="18" y="32" width="5" height="7" fill="#008BD2"/>
  <path d="M26 14H31V2H3V7H26V14Z" fill="#005CA9"/>
  <rect x="24" y="32" width="5" height="7" fill="#005CA9"/>
  <path d="M32 10H37V-1H3V4H32V10Z" fill="#951B81"/>
  <rect x="30" y="32" width="5" height="7" fill="#951B81"/>
  <path d="M3 0V4H37V28H41V0H3Z" fill="#E50043"/>
  <rect x="36" y="32" width="5" height="7" fill="#E50043"/>
  <rect x="1" y="28" width="39" height="2" fill="#0F172A"/>
</g>
<text x="56" y="32" fill="#003B6D" font-family="system-ui, -apple-system, sans-serif" font-weight="900" font-size="28" letter-spacing="0.04em">
  RITTAL
</text>
</svg>